<?xml version="1.0" standalone="no"?><!DOCTYPE svg PUBLIC "-//W3C//DTD SVG 1.1//EN" "http://www.w3.org/Graphics/SVG/1.1/DTD/svg11.dtd"><svg t="1597122986984" class="icon" viewBox="0 0 1024 1024" version="1.1" xmlns="http://www.w3.org/2000/svg" p-id="23969" xmlns:xlink="http://www.w3.org/1999/xlink" width="64" height="64"><defs><style type="text/css"></style></defs><path d="M1024.02414 327.5c0 177.1-854 372.7-918.6 372.7-36.3 0-77.4-8.4-77.4-41.8 0-11.2 12.9-27.3 35.5-46.8l-60-106.5c-8.1-14.4-1.7-32.7 13.7-38.8l10.3-4.1c18.7-7.5 39.7-6.4 57.5 3l108.8 57.6c42.4-25.1 90.4-51.4 141.1-77.4L122.82414 307.9c-16.8-10.9-16.6-35.5 0.3-46.1l17.3-10.9c28.9-18.1 64-23.5 96.9-14.8l352.8 93.1c110-43.7 209.5-73.5 268.3-73.5 15.7 0 31.5 0.4 46.7 1.5l-106.5 48.1-2.6 35.8 164.5-75.6c39.5 9.4 63.5 26.9 63.5 62zM594.82414 633.3l131.6 149.5c8 9.1 21.1 11.9 32.1 6.7l17.6-8.2c32.1-14.9 51.1-48.8 47-84l-16.5-140.9c-1-8.7-9.9-14.2-18.1-11.3l-187.9 66.2c-9.2 3.2-12.2 14.7-5.8 22z" fill="#1296db" p-id="23970"></path></svg>